<svg xmlns="http://www.w3.org/2000/svg" xmlns:xlink="http://www.w3.org/1999/xlink" width="128.681" height="91.484" viewBox="0 0 128.681 91.484">
  <defs>
    <clipPath id="clip-path">
      <rect id="Retângulo_1" data-name="Retângulo 1" width="128.681" height="91.484" transform="translate(0 0)" fill="none"/>
    </clipPath>
  </defs>
  <g id="Grupo_1" data-name="Grupo 1" transform="translate(0 0)" clip-path="url(#clip-path)">
    <path id="Caminho_1" data-name="Caminho 1" d="M86.222,25.928C80.068,43.97,61.171,23.519,53.731,42.467c5.946,5.22,15.016,5.6,23.246,1.106-3.782,5.189-12.251,6.4-18.783,3.556-8.338-3.632-11.506-10.49-10.6-17.4l-1.273-.294a19.294,19.294,0,0,0,1.068,10.111A20.568,20.568,0,0,0,58.819,50.834l.127.053a19.227,19.227,0,0,0,15.531.119c8.073-3.6,14.967-13.742,11.745-25.078" fill="#adbf00" fill-rule="evenodd"/>
    <path id="Caminho_2" data-name="Caminho 2" d="M51.8,23.758c3.606-3.288,7.447-5.731,10.533-9.3a2.05,2.05,0,0,1,3.177-.345c3.832,2.751,8.06,4.373,12.291,6.8,5.084,2.921,2.082,11.372-3.666,10.521a33.524,33.524,0,0,0-8.4-.578,33.515,33.515,0,0,0-8.08,2.379c-5.428,2.073-10.184-5.531-5.851-9.481" fill="#0078c1" fill-rule="evenodd"/>
    <path id="Caminho_3" data-name="Caminho 3" d="M48.277,12.975c2.248-.245,4.314,1.791,4.616,4.548s-1.277,5.192-3.525,5.437-4.314-1.79-4.615-4.547,1.277-5.193,3.524-5.438" fill="#0078c1" fill-rule="evenodd"/>
    <path id="Caminho_4" data-name="Caminho 4" d="M78.912,9.628c2.247-.245,4.314,1.791,4.615,4.548S82.251,19.368,80,19.613s-4.314-1.79-4.615-4.548,1.277-5.192,3.524-5.437" fill="#0078c1" fill-rule="evenodd"/>
    <path id="Caminho_5" data-name="Caminho 5" d="M68.9.023c2.55-.279,4.894,2.031,5.235,5.159s-1.448,5.89-4,6.169S65.244,9.32,64.9,6.191,66.35.3,68.9.023" fill="#0078c1" fill-rule="evenodd"/>
    <path id="Caminho_6" data-name="Caminho 6" d="M55.978,1.435c2.55-.278,4.894,2.031,5.235,5.16s-1.448,5.889-4,6.168S52.322,10.732,51.98,7.6s1.448-5.889,4-6.168" fill="#0078c1" fill-rule="evenodd"/>
    <path id="Caminho_7" data-name="Caminho 7" d="M128.68,75.8a.278.278,0,0,1-.061.215.365.365,0,0,1-.226.052h-2.806a.922.922,0,0,1-.235-.021c-.049-.013-.1-.075-.155-.184q-.039-.1-.081-.246c-.027-.1-.061-.2-.1-.328a4.189,4.189,0,0,1-1.2.819,3.411,3.411,0,0,1-1.342.246,3.335,3.335,0,0,1-2.417-.85,3.078,3.078,0,0,1-.88-2.325,3.229,3.229,0,0,1,.45-1.782,3.128,3.128,0,0,1,1.291-1.106,5.8,5.8,0,0,1,1.536-.492,11.378,11.378,0,0,1,1.925-.143h.185v-.614a1.17,1.17,0,0,0-.246-.83,1.537,1.537,0,0,0-1.065-.256,4.169,4.169,0,0,0-1.075.164,12.015,12.015,0,0,0-1.322.451.666.666,0,0,1-.245.03c-.069-.006-.124-.065-.164-.174l-.553-1.638a.632.632,0,0,1-.041-.288c.014-.054.1-.115.246-.183a6.042,6.042,0,0,1,1.648-.534,10.459,10.459,0,0,1,1.936-.184,5.911,5.911,0,0,1,1.618.205,3.272,3.272,0,0,1,1.209.615,2.349,2.349,0,0,1,.8,1.147,5.053,5.053,0,0,1,.184,1.413v3.585a4.957,4.957,0,0,0,.031.625q.03.234.092.522h.778c.192,0,.287.089.287.266Zm-4.117-4.22h-.205a3.347,3.347,0,0,0-1.823.369A1.236,1.236,0,0,0,122,73.035a1.266,1.266,0,0,0,.337.921,1.088,1.088,0,0,0,.809.349,1.954,1.954,0,0,0,1.414-.717Zm-5.572-5.428a.208.208,0,0,1,.061.226c-.027.081-.054.157-.081.225l-.7,1.823c-.068.178-.171.232-.307.164s-.277-.133-.42-.195A1.391,1.391,0,0,0,117,68.3a1.166,1.166,0,0,0-.6.164,3.874,3.874,0,0,0-.727.635V73.67h.942c.191,0,.287.089.287.266V75.8a.278.278,0,0,1-.062.215.363.363,0,0,1-.225.052h-4.977a.212.212,0,0,1-.267-.267V73.936a.211.211,0,0,1,.267-.266h.839V69.491c0-.15-.007-.328-.02-.533a4.639,4.639,0,0,0-.083-.614h-.88a.277.277,0,0,1-.215-.061.368.368,0,0,1-.051-.226V66.214a.368.368,0,0,1,.051-.226.281.281,0,0,1,.215-.061h2.888a.47.47,0,0,1,.41.205,4.1,4.1,0,0,1,.369.9l.184-.225a3.642,3.642,0,0,1,1.045-.932,2.464,2.464,0,0,1,1.188-.277,2.236,2.236,0,0,1,.819.144,1.452,1.452,0,0,1,.594.409m-8.644,0a.21.21,0,0,1,.061.226c-.027.081-.055.157-.082.225l-.7,1.823c-.068.178-.171.232-.307.164s-.277-.133-.42-.195a1.4,1.4,0,0,0-.543-.092,1.161,1.161,0,0,0-.6.164,3.873,3.873,0,0,0-.728.635V73.67h.942c.192,0,.288.089.288.266V75.8a.278.278,0,0,1-.062.215.365.365,0,0,1-.226.052h-4.977a.211.211,0,0,1-.266-.267V73.936a.211.211,0,0,1,.266-.266h.84V69.491c0-.15-.007-.328-.021-.533a4.474,4.474,0,0,0-.082-.614h-.88a.278.278,0,0,1-.215-.061.367.367,0,0,1-.052-.226V66.214a.367.367,0,0,1,.052-.226.282.282,0,0,1,.215-.061h2.888a.47.47,0,0,1,.41.205,4.065,4.065,0,0,1,.368.9l.185-.225a3.64,3.64,0,0,1,1.044-.932,2.469,2.469,0,0,1,1.188-.277,2.241,2.241,0,0,1,.82.144,1.459,1.459,0,0,1,.594.409m-9.054,5.183c0,.177-.034.29-.1.338a.637.637,0,0,1-.348.071H95.25a2.8,2.8,0,0,0,.543,1.732,1.806,1.806,0,0,0,1.424.542,4.482,4.482,0,0,0,1.341-.184,6.532,6.532,0,0,0,1.178-.512.455.455,0,0,1,.287-.082c.068.013.136.082.2.205l.717,1.474c.068.124.085.212.051.267a.975.975,0,0,1-.256.225,5.754,5.754,0,0,1-1.854.778,8.3,8.3,0,0,1-1.833.226,4.56,4.56,0,0,1-3.626-1.383,5.807,5.807,0,0,1-1.209-3.943,7.174,7.174,0,0,1,.328-2.222,5.081,5.081,0,0,1,.942-1.741A4.219,4.219,0,0,1,94.973,66a4.683,4.683,0,0,1,1.977-.4,3.787,3.787,0,0,1,3.288,1.455,7.254,7.254,0,0,1,1.055,4.281M98.2,69.675a2.986,2.986,0,0,0-.359-1.577,1.177,1.177,0,0,0-1.014-.43,1.246,1.246,0,0,0-1.055.441,3.533,3.533,0,0,0-.5,1.566Zm-5.756-3.3a.27.27,0,0,1-.348.348H90.579a.489.489,0,0,1-.3-.062c-.048-.04-.072-.136-.072-.286V64.821H88.92v8.788h1.291a.642.642,0,0,1,.358.061q.072.062.072.348v1.618a.646.646,0,0,1-.062.359c-.04.047-.156.072-.348.072H84.25c-.191,0-.307-.025-.349-.072a.658.658,0,0,1-.061-.359V74.018q0-.286.072-.348a.644.644,0,0,1,.358-.061h1.291V64.821H84.27v1.557a.27.27,0,0,1-.348.348H82.406a.484.484,0,0,1-.3-.062c-.049-.04-.072-.136-.072-.286V62.363c0-.15.027-.246.082-.287a.545.545,0,0,1,.307-.061h9.689c.15,0,.242.02.276.061a.511.511,0,0,1,.052.287ZM77.368,75.8a.278.278,0,0,1-.062.215.365.365,0,0,1-.226.052H74.274a.927.927,0,0,1-.235-.021c-.048-.013-.1-.075-.154-.184-.027-.069-.054-.151-.082-.246s-.061-.2-.1-.328a4.2,4.2,0,0,1-1.2.819,3.417,3.417,0,0,1-1.342.246,3.333,3.333,0,0,1-2.417-.85,3.075,3.075,0,0,1-.881-2.325,3.22,3.22,0,0,1,.451-1.782A3.119,3.119,0,0,1,69.6,70.29a5.794,5.794,0,0,1,1.537-.492,11.37,11.37,0,0,1,1.925-.143h.184v-.614a1.175,1.175,0,0,0-.245-.83,1.54,1.54,0,0,0-1.066-.256,4.175,4.175,0,0,0-1.075.164,11.944,11.944,0,0,0-1.322.451.666.666,0,0,1-.245.03c-.068-.006-.123-.065-.164-.174l-.553-1.638a.632.632,0,0,1-.041-.288c.014-.054.1-.115.246-.183a6.042,6.042,0,0,1,1.648-.534,10.459,10.459,0,0,1,1.936-.184,5.913,5.913,0,0,1,1.619.205,3.267,3.267,0,0,1,1.208.615,2.343,2.343,0,0,1,.8,1.147,5.053,5.053,0,0,1,.185,1.413v3.585a5.189,5.189,0,0,0,.03.625q.03.234.092.522h.778c.192,0,.288.089.288.266ZM73.25,71.58h-.205a3.349,3.349,0,0,0-1.823.369,1.236,1.236,0,0,0-.532,1.086,1.263,1.263,0,0,0,.338.921,1.085,1.085,0,0,0,.809.349,1.951,1.951,0,0,0,1.413-.717ZM66.859,75.8a.278.278,0,0,1-.061.215.365.365,0,0,1-.225.052H63.541a.367.367,0,0,1-.287-.093,1.6,1.6,0,0,1-.2-.481l-.042-.123a4.366,4.366,0,0,1-2.765,1.045,3.745,3.745,0,0,1-1.465-.256A2.994,2.994,0,0,1,57.7,75.37a6,6,0,0,1-1.229-4.056q0-.819.051-1.464a6.681,6.681,0,0,1,.195-1.188,4.838,4.838,0,0,1,.369-.983,4.382,4.382,0,0,1,.573-.851,3.474,3.474,0,0,1,1.352-.942,4.716,4.716,0,0,1,1.68-.287,3.78,3.78,0,0,1,.922.1,4.023,4.023,0,0,1,.88.348V63.776h-.983a.362.362,0,0,1-.225-.051.278.278,0,0,1-.062-.215V61.646c0-.177.1-.267.287-.267h3.871a.317.317,0,0,1,.215.052.312.312,0,0,1,.051.215V72.585a5.192,5.192,0,0,0,.031.614c.021.164.045.32.072.471h.82c.191,0,.286.089.286.266ZM62.5,68.1a2.747,2.747,0,0,0-.706-.225,4.178,4.178,0,0,0-.707-.061,1.729,1.729,0,0,0-.738.143,1.061,1.061,0,0,0-.491.512,3.36,3.36,0,0,0-.277.984,10.691,10.691,0,0,0-.092,1.536,10.313,10.313,0,0,0,.092,1.5,3.569,3.569,0,0,0,.267.973,1.128,1.128,0,0,0,.44.522,1.2,1.2,0,0,0,.615.154,2.758,2.758,0,0,0,.86-.133,1.946,1.946,0,0,0,.737-.44ZM51.209,71.027a7.2,7.2,0,0,1-.317,2.2,4.766,4.766,0,0,1-.932,1.7,4.245,4.245,0,0,1-1.485,1.1,4.8,4.8,0,0,1-1.977.389,4.354,4.354,0,0,1-3.523-1.455,5.957,5.957,0,0,1-1.229-3.973,7.3,7.3,0,0,1,.317-2.223,4.782,4.782,0,0,1,.932-1.7A4.085,4.085,0,0,1,44.5,65.978a5.124,5.124,0,0,1,2.018-.379,4.974,4.974,0,0,1,2,.379,3.935,3.935,0,0,1,1.464,1.086,4.925,4.925,0,0,1,.912,1.71,7.451,7.451,0,0,1,.317,2.253m-3.216-.02a5.652,5.652,0,0,0-.369-2.437,1.212,1.212,0,0,0-1.146-.7,1.237,1.237,0,0,0-1.158.7,5.593,5.593,0,0,0-.379,2.457,5.456,5.456,0,0,0,.379,2.427,1.239,1.239,0,0,0,1.158.687,1.213,1.213,0,0,0,1.146-.7,5.66,5.66,0,0,0,.369-2.438m-6.718,4.281a1.024,1.024,0,0,1,.02.338c-.014.075-.109.147-.287.215a7.6,7.6,0,0,1-2.7.574,3.474,3.474,0,0,1-1.844-.43,2.322,2.322,0,0,1-.983-1.209,3.624,3.624,0,0,1-.205-.768,6.352,6.352,0,0,1-.062-.952V68.241H33.839a.622.622,0,0,1-.3-.04c-.034-.028-.051-.13-.051-.308V66.317a.275.275,0,0,1,.369-.369h1.351V63.325a.458.458,0,0,1,.052-.266.448.448,0,0,1,.276-.082L38,62.732c.164-.028.263-.028.3,0s.05.115.05.266v2.95h2.418c.177,0,.276.023.3.071a.474.474,0,0,1-.011.256l-.307,1.68a.361.361,0,0,1-.123.236.523.523,0,0,1-.266.05H38.345v4.692a1.132,1.132,0,0,0,.144.614.559.559,0,0,0,.512.226,2.3,2.3,0,0,0,.676-.124c.26-.081.526-.177.8-.286.2-.1.334-.034.389.184Zm-8.317.512a.278.278,0,0,1-.061.215.363.363,0,0,1-.225.052H29c-.15,0-.239-.018-.267-.052a.553.553,0,0,1-.041-.277V69.266q0-1.353-.921-1.352a1.813,1.813,0,0,0-.738.153,3.442,3.442,0,0,0-.8.543V75.8a.312.312,0,0,1-.051.215.4.4,0,0,1-.256.052H22.245a.211.211,0,0,1-.266-.267V73.936a.211.211,0,0,1,.266-.266h.84V69.451a5.74,5.74,0,0,0-.123-1.168H22.1a.314.314,0,0,1-.216-.052.323.323,0,0,1-.05-.214v-1.8a.376.376,0,0,1,.05-.226.285.285,0,0,1,.216-.061h3.175a.367.367,0,0,1,.327.235c.082.158.192.373.328.646a5.3,5.3,0,0,1,1.444-.932,4,4,0,0,1,1.506-.277,2.824,2.824,0,0,1,2.264.829,3.8,3.8,0,0,1,.706,2.51V73.67h.82c.19,0,.286.089.286.266Zm-12.229,0a.278.278,0,0,1-.061.215.367.367,0,0,1-.226.052H17.636a.922.922,0,0,1-.235-.021c-.048-.013-.1-.075-.154-.184-.027-.069-.054-.151-.082-.246s-.061-.2-.1-.328a4.189,4.189,0,0,1-1.2.819,3.411,3.411,0,0,1-1.342.246,3.331,3.331,0,0,1-2.416-.85,3.075,3.075,0,0,1-.881-2.325,3.229,3.229,0,0,1,.45-1.782,3.128,3.128,0,0,1,1.291-1.106A5.8,5.8,0,0,1,14.5,69.8a11.386,11.386,0,0,1,1.925-.143h.185v-.614a1.17,1.17,0,0,0-.246-.83,1.537,1.537,0,0,0-1.065-.256,4.175,4.175,0,0,0-1.075.164,12.015,12.015,0,0,0-1.322.451.666.666,0,0,1-.245.03c-.068-.006-.123-.065-.164-.174l-.553-1.638A.632.632,0,0,1,11.9,66.5c.014-.054.1-.115.246-.183a6.042,6.042,0,0,1,1.648-.534,10.459,10.459,0,0,1,1.936-.184,5.911,5.911,0,0,1,1.618.205,3.272,3.272,0,0,1,1.209.615,2.349,2.349,0,0,1,.8,1.147,5.054,5.054,0,0,1,.184,1.413v3.585a4.958,4.958,0,0,0,.031.625q.03.234.092.522h.778c.192,0,.287.089.287.266Zm-4.117-4.22h-.2a3.348,3.348,0,0,0-1.824.369,1.236,1.236,0,0,0-.532,1.086,1.263,1.263,0,0,0,.338.921,1.085,1.085,0,0,0,.809.349,1.952,1.952,0,0,0,1.413-.717Zm-6.944,3.4a.49.49,0,0,1-.215.379,3.649,3.649,0,0,1-.461.317A4.163,4.163,0,0,1,8.3,76a5.914,5.914,0,0,1-.83.236,8.039,8.039,0,0,1-.891.133c-.3.027-.587.041-.86.041A5.048,5.048,0,0,1,1.8,75,6.067,6.067,0,0,1,.44,72.523,12.479,12.479,0,0,1,0,69.02a12.71,12.71,0,0,1,.369-3.246A5.808,5.808,0,0,1,1.6,63.408a4.774,4.774,0,0,1,1.762-1.3,5.639,5.639,0,0,1,2.253-.441,7.984,7.984,0,0,1,2.049.266,3.463,3.463,0,0,1,1.6.861.694.694,0,0,1,.246.471v2.7a.4.4,0,0,1-.072.277.436.436,0,0,1-.3.072H7.108a.359.359,0,0,1-.267-.072.453.453,0,0,1-.061-.277V64.534l-.512-.072a4.1,4.1,0,0,0-.533-.03,1.919,1.919,0,0,0-1.752.962A6.441,6.441,0,0,0,3.4,68.57a15.357,15.357,0,0,0,.154,2.376,5.347,5.347,0,0,0,.46,1.567,2,2,0,0,0,.779.87,2.247,2.247,0,0,0,1.126.266c.192,0,.37-.006.533-.02s.328-.034.491-.061v-1.5a.4.4,0,0,1,.072-.276.435.435,0,0,1,.3-.072H9.32c.15,0,.246.024.286.072a.435.435,0,0,1,.062.276Z" fill="#adbf00"/>
    <path id="Caminho_8" data-name="Caminho 8" d="M100.164,90.551a.13.13,0,0,1,.147.147v.467a.131.131,0,0,1-.147.148H97.755c-.09,0-.135-.049-.135-.148V90.7q0-.147.135-.147h.7V87.479c0-.189,0-.347-.006-.474s-.01-.237-.019-.331a1.179,1.179,0,0,0-.043-.252c-.02-.074-.042-.156-.067-.246h-.651a.13.13,0,0,1-.148-.147v-.467a.131.131,0,0,1,.148-.148h1.106c.106,0,.2.076.282.227a2.153,2.153,0,0,1,.2.633c.148-.172.25-.288.307-.35s.119-.125.185-.19a1.357,1.357,0,0,1,.983-.492,1.265,1.265,0,0,1,.411.068c.136.045.2.088.2.128a.225.225,0,0,1-.024.1l-.295.675c-.025.034-.046.05-.062.05a.079.079,0,0,1-.049-.012c-.107-.033-.184-.056-.233-.068a.584.584,0,0,0-.135-.018.761.761,0,0,0-.462.2,6.211,6.211,0,0,0-.706.731v3.453Zm-3.258,0a.13.13,0,0,1,.148.147v.467a.131.131,0,0,1-.148.148H95.862a.313.313,0,0,1-.264-.148,1.716,1.716,0,0,1-.2-.5,2.89,2.89,0,0,1-.835.589,2.291,2.291,0,0,1-.935.185,1.531,1.531,0,0,1-1.167-.455,1.714,1.714,0,0,1-.43-1.229q0-2.088,3.232-2.138v-.406a1.163,1.163,0,0,0-.251-.841,1.181,1.181,0,0,0-.855-.252,2.75,2.75,0,0,0-.664.079,4.538,4.538,0,0,0-.749.277.524.524,0,0,1-.086.024.086.086,0,0,1-.086-.061l-.184-.491-.013-.1c0-.058.064-.119.191-.184a2.737,2.737,0,0,1,.473-.184,4.627,4.627,0,0,1,.627-.142,4.018,4.018,0,0,1,.639-.055q1.879,0,1.88,1.72v2.323c0,.164,0,.3.006.418a2.889,2.889,0,0,0,.025.307c.012.09.026.174.043.252a1.951,1.951,0,0,0,.073.252ZM95.26,88.376q-2.285.012-2.285,1.3a1.04,1.04,0,0,0,.239.707.8.8,0,0,0,.633.277A1.456,1.456,0,0,0,94.5,90.5a3.951,3.951,0,0,0,.762-.535Zm-5.026,2.175a.131.131,0,0,1,.148.147v.467a.131.131,0,0,1-.148.148H87.825c-.09,0-.135-.049-.135-.148V90.7q0-.147.135-.147h.7V87.479c0-.189,0-.347-.006-.474s-.01-.237-.018-.331a1.319,1.319,0,0,0-.043-.252c-.021-.074-.043-.156-.067-.246h-.652a.131.131,0,0,1-.148-.147v-.467a.131.131,0,0,1,.148-.148h1.106c.106,0,.2.076.282.227a2.153,2.153,0,0,1,.2.633c.148-.172.25-.288.308-.35s.119-.125.184-.19a1.357,1.357,0,0,1,.983-.492,1.276,1.276,0,0,1,.412.068c.135.045.2.088.2.128a.225.225,0,0,1-.024.1l-.295.675c-.025.034-.045.05-.062.05a.081.081,0,0,1-.049-.012c-.106-.033-.184-.056-.233-.068a.571.571,0,0,0-.135-.018.763.763,0,0,0-.462.2,6.294,6.294,0,0,0-.706.731v3.453Zm-5.813-4.375a.13.13,0,0,1-.147-.147v-.467a.13.13,0,0,1,.147-.148h1.524a.13.13,0,0,1,.147.148v4.116a3.665,3.665,0,0,0,.025.48,2.7,2.7,0,0,0,.086.393h.639a.13.13,0,0,1,.147.147v.467a.13.13,0,0,1-.147.148h-1.07a.3.3,0,0,1-.245-.129,1.558,1.558,0,0,1-.2-.449,3.613,3.613,0,0,1-.915.584,2.387,2.387,0,0,1-.9.166,1.745,1.745,0,0,1-1.266-.418,1.636,1.636,0,0,1-.431-1.229V86.176h-.688a.13.13,0,0,1-.147-.147v-.467a.13.13,0,0,1,.147-.148H82.59a.13.13,0,0,1,.147.148v3.662a2.285,2.285,0,0,0,.191,1.118.75.75,0,0,0,.694.307,2.115,2.115,0,0,0,.8-.166,2.6,2.6,0,0,0,.749-.473V86.176ZM79.346,89.26a.13.13,0,0,1,.147-.147h.553a.131.131,0,0,1,.148.147v1.364a.3.3,0,0,1-.025.142.551.551,0,0,1-.086.1,2.732,2.732,0,0,1-.873.449,3.2,3.2,0,0,1-.983.166,2.337,2.337,0,0,1-2.113-1.131,6.327,6.327,0,0,1-.713-3.342q0-4.3,2.728-4.3a3.338,3.338,0,0,1,1.026.172,2.664,2.664,0,0,1,.879.455.283.283,0,0,1,.1.221v1.364a.131.131,0,0,1-.148.148h-.553a.131.131,0,0,1-.147-.148V83.878a2.861,2.861,0,0,0-.6-.27,1.864,1.864,0,0,0-.535-.074,1.32,1.32,0,0,0-1.272.786,6.247,6.247,0,0,0-.386,2.569q0,3.772,1.745,3.773a1.743,1.743,0,0,0,.54-.08,2.976,2.976,0,0,0,.566-.265Zm-10.139-6a.131.131,0,0,1-.148-.147v-.467a.13.13,0,0,1,.148-.147h1.548c.082,0,.123.044.123.134v6.452a9.532,9.532,0,0,0,.037,1.119.462.462,0,0,0,.492.467,1.261,1.261,0,0,0,.553-.147.382.382,0,0,1,.1-.025c.041,0,.07.028.086.086l.148.455a.283.283,0,0,1,.024.086c0,.032-.033.067-.1.1a1.133,1.133,0,0,1-.252.1,3.239,3.239,0,0,1-.338.074,2.228,2.228,0,0,1-.357.031,1.413,1.413,0,0,1-.829-.228,1.038,1.038,0,0,1-.424-.633c-.016-.065-.028-.123-.037-.172a1.959,1.959,0,0,1-.018-.215q-.006-.141-.006-.4V83.263Zm-.467,7.288a.13.13,0,0,1,.147.147v.467a.13.13,0,0,1-.147.148H67.695a.313.313,0,0,1-.264-.148,1.745,1.745,0,0,1-.2-.5,2.89,2.89,0,0,1-.835.589,2.29,2.29,0,0,1-.934.185,1.532,1.532,0,0,1-1.168-.455,1.714,1.714,0,0,1-.43-1.229q0-2.088,3.232-2.138v-.406a1.158,1.158,0,0,0-.252-.841,1.177,1.177,0,0,0-.854-.252,2.75,2.75,0,0,0-.664.079,4.571,4.571,0,0,0-.749.277.524.524,0,0,1-.086.024.087.087,0,0,1-.086-.061l-.184-.491-.013-.1c0-.058.064-.119.191-.184a2.8,2.8,0,0,1,.473-.184,4.627,4.627,0,0,1,.627-.142,4.018,4.018,0,0,1,.639-.055q1.879,0,1.88,1.72v2.323c0,.164,0,.3.006.418s.012.217.024.307.027.174.043.252a2.141,2.141,0,0,0,.074.252Zm-1.647-2.175q-2.286.012-2.286,1.3a1.041,1.041,0,0,0,.24.707.8.8,0,0,0,.633.277,1.456,1.456,0,0,0,.651-.166,3.921,3.921,0,0,0,.762-.535Zm-5.026,2.175a.13.13,0,0,1,.147.147v.467a.13.13,0,0,1-.147.148H59.658c-.09,0-.136-.049-.136-.148V90.7c0-.1.046-.147.136-.147h.7V87.479c0-.189,0-.347-.005-.474s-.011-.237-.019-.331a1.4,1.4,0,0,0-.043-.252c-.021-.074-.043-.156-.068-.246h-.651a.13.13,0,0,1-.147-.147v-.467a.13.13,0,0,1,.147-.148h1.106c.106,0,.2.076.283.227a2.215,2.215,0,0,1,.2.633c.147-.172.249-.288.307-.35s.118-.125.184-.19a1.359,1.359,0,0,1,.983-.492,1.276,1.276,0,0,1,.412.068c.135.045.2.088.2.128a.227.227,0,0,1-.025.1l-.3.675c-.025.034-.045.05-.061.05a.082.082,0,0,1-.05-.012c-.106-.033-.184-.056-.233-.068a.571.571,0,0,0-.135-.018.758.758,0,0,0-.461.2,6.119,6.119,0,0,0-.707.731v3.453Zm-5.813-4.375a.131.131,0,0,1-.148-.147v-.467a.131.131,0,0,1,.148-.148h1.523a.131.131,0,0,1,.148.148v4.116a3.848,3.848,0,0,0,.025.48,2.569,2.569,0,0,0,.086.393h.639a.131.131,0,0,1,.148.147v.467a.131.131,0,0,1-.148.148H57.606a.3.3,0,0,1-.246-.129,1.531,1.531,0,0,1-.2-.449,3.613,3.613,0,0,1-.915.584,2.388,2.388,0,0,1-.9.166,1.742,1.742,0,0,1-1.265-.418,1.636,1.636,0,0,1-.431-1.229V86.176H52.96a.13.13,0,0,1-.147-.147v-.467a.13.13,0,0,1,.147-.148h1.463a.13.13,0,0,1,.147.148v3.662a2.3,2.3,0,0,0,.191,1.118.751.751,0,0,0,.694.307,2.111,2.111,0,0,0,.8-.166A2.586,2.586,0,0,0,57,90.01V86.176Zm-6.8-2.446a.153.153,0,0,1,.123-.159l.639-.173a.353.353,0,0,1,.074-.024c.04,0,.066.008.073.024a.341.341,0,0,1,.013.124v1.892h1.843c.074,0,.111.029.111.086a.3.3,0,0,1-.013.074l-.135.479a.161.161,0,0,1-.172.123H50.38v3.465a4.574,4.574,0,0,0,.018.5.505.505,0,0,0,.1.246.717.717,0,0,0,.614.246,1.675,1.675,0,0,0,.467-.068,5.981,5.981,0,0,0,.639-.24.2.2,0,0,1,.086-.024c.041,0,.07.024.087.074l.134.5a.2.2,0,0,1,.025.061c0,.049-.053.1-.159.16a2.3,2.3,0,0,1-.4.16,4.56,4.56,0,0,1-.522.123,3.123,3.123,0,0,1-.516.049,1.732,1.732,0,0,1-.818-.185,1.224,1.224,0,0,1-.523-.5,1.245,1.245,0,0,1-.128-.406,5.557,5.557,0,0,1-.031-.7V86.176h-.872a.236.236,0,0,1-.123-.019c-.017-.011-.025-.051-.025-.116v-.479a.194.194,0,0,1,.025-.124.2.2,0,0,1,.123-.024h.872Zm-1.339,6.821a.13.13,0,0,1,.147.147v.467a.13.13,0,0,1-.147.148H47.074a.31.31,0,0,1-.264-.148,1.689,1.689,0,0,1-.2-.5,2.89,2.89,0,0,1-.835.589,2.293,2.293,0,0,1-.934.185,1.53,1.53,0,0,1-1.168-.455,1.714,1.714,0,0,1-.43-1.229q0-2.088,3.232-2.138v-.406a1.158,1.158,0,0,0-.252-.841,1.178,1.178,0,0,0-.854-.252,2.738,2.738,0,0,0-.664.079,4.505,4.505,0,0,0-.749.277.589.589,0,0,1-.086.024.086.086,0,0,1-.086-.061l-.185-.491-.012-.1c0-.058.064-.119.19-.184a2.783,2.783,0,0,1,.474-.184,4.646,4.646,0,0,1,.626-.142,4.018,4.018,0,0,1,.639-.055q1.881,0,1.88,1.72v2.323c0,.164,0,.3.007.418s.012.217.024.307.027.174.043.252a1.965,1.965,0,0,0,.074.252Zm-1.647-2.175q-2.286.012-2.286,1.3a1.041,1.041,0,0,0,.24.707.8.8,0,0,0,.633.277,1.462,1.462,0,0,0,.651-.166,3.951,3.951,0,0,0,.762-.535ZM40.18,83.681a.13.13,0,0,1-.148-.147v-.5a.131.131,0,0,1,.148-.148h2.445a.131.131,0,0,1,.148.148v.5a.13.13,0,0,1-.148.147h-.774v7.46a.134.134,0,0,1-.172.172h-.664a.183.183,0,0,1-.184-.123l-2.839-6.083q-.123-.284-.2-.516a5.44,5.44,0,0,1-.154-.553q.073.379.1.608a4.874,4.874,0,0,1,.025.51v5.358h.786a.131.131,0,0,1,.148.148v.5a.131.131,0,0,1-.148.148H36.088a.131.131,0,0,1-.148-.148v-.5a.131.131,0,0,1,.148-.148h.774V83.681h-.774a.13.13,0,0,1-.148-.147v-.5a.131.131,0,0,1,.148-.148h1.72A.223.223,0,0,1,38,83l2.717,5.727a4.548,4.548,0,0,1,.184.485c.049.16.094.314.135.461-.033-.188-.055-.362-.068-.522s-.018-.313-.018-.46V83.681Zm-8.173,5.678a.131.131,0,0,1,.148-.148h.553a.13.13,0,0,1,.147.148v1.782a.217.217,0,0,1-.03.141.215.215,0,0,1-.142.031H27.964a.13.13,0,0,1-.147-.148v-.5a.13.13,0,0,1,.147-.148h.775V83.681h-.775a.13.13,0,0,1-.147-.147v-.5a.131.131,0,0,1,.147-.148H32.6a.221.221,0,0,1,.142.031.248.248,0,0,1,.03.154v1.659a.131.131,0,0,1-.147.148h-.553a.131.131,0,0,1-.148-.148v-.971H29.747V86.52h2.408a.217.217,0,0,1,.142.031.226.226,0,0,1,.03.141v.48a.228.228,0,0,1-.03.141.224.224,0,0,1-.142.03H29.747v3.1h2.26ZM31.6,80.4a.182.182,0,0,1,.111-.049c.049,0,.09.032.122.1l.32.553a.2.2,0,0,1,.049.123c0,.041-.04.078-.123.111l-2.163.86a.247.247,0,0,1-.11.025q-.05,0-.111-.1l-.11-.2a.2.2,0,0,1-.05-.124c0-.024.037-.061.111-.11Z" fill="#0078c1"/>
  </g>
</svg>
